<svg width="64" height="64" viewBox="0 0 64 64" fill="none" xmlns="http://www.w3.org/2000/svg">
<path fill-rule="evenodd" clip-rule="evenodd" d="M32 4C16.536 4 4 16.536 4 32C4 47.464 16.536 60 32 60C47.464 60 60 47.464 60 32C60 16.536 47.464 4 32 4ZM32 10.5C20.074 10.5 10.5 20.074 10.5 32C10.5 43.926 20.074 53.5 32 53.5C43.926 53.5 53.5 43.926 53.5 32C53.5 20.074 43.926 10.5 32 10.5ZM32 18C24.268 18 18 24.268 18 32C18 39.732 24.268 46 32 46C39.732 46 46 39.732 46 32C46 24.268 39.732 18 32 18ZM32 24.5C27.858 24.5 24.5 27.858 24.5 32C24.5 36.142 27.858 39.5 32 39.5C36.142 39.5 39.5 36.142 39.5 32C39.5 27.858 36.142 24.5 32 24.5Z" fill="#f97316"/>
<path d="M32 10.5C20.074 10.5 10.5 20.074 10.5 32C10.5 43.926 20.074 53.5 32 53.5C43.926 53.5 53.5 43.926 53.5 32C53.5 20.074 43.926 10.5 32 10.5ZM32 18C24.268 18 18 24.268 18 32C18 39.732 24.268 46 32 46C39.732 46 46 39.732 46 32C46 24.268 39.732 18 32 18Z" fill="#f97316"/>
<circle cx="32" cy="32" r="7.5" fill="#f97316"/>
<path d="M32 10.5C20.074 10.5 10.5 20.074 10.5 32C10.5 43.926 20.074 53.5 32 53.5C43.926 53.5 53.5 43.926 53.5 32C53.5 20.074 43.926 10.5 32 10.5ZM32 18C24.268 18 18 24.268 18 32C18 39.732 24.268 46 32 46C39.732 46 46 39.732 46 32C46 24.268 39.732 18 32 18Z" fill="#f97316"/>
<circle cx="32" cy="32" r="7.5" fill="#f97316"/>
<path d="M32 4C16.536 4 4 16.536 4 32C4 47.464 16.536 60 32 60C47.464 60 60 47.464 60 32C60 16.536 47.464 4 32 4ZM32 10.5C20.074 10.5 10.5 20.074 10.5 32C10.5 43.926 20.074 53.5 32 53.5C43.926 53.5 53.5 43.926 53.5 32C53.5 20.074 43.926 10.5 32 10.5Z" fill="#f97316"/>
<path d="M32 18C24.268 18 18 24.268 18 32C18 39.732 24.268 46 32 46C39.732 46 46 39.732 46 32C46 24.268 39.732 18 32 18Z" fill="#f97316"/>
<circle cx="32" cy="32" r="7.5" fill="#f97316"/>
</svg>