<svg width="64" height="64" viewBox="0 0 64 64" fill="none" xmlns="http://www.w3.org/2000/svg">
<rect width="64" height="64" fill="#1E3A8A"/>
<path d="M32 10C20.953 10 12 18.953 12 30C12 41.047 20.953 50 32 50C43.047 50 52 41.047 52 30C52 18.953 43.047 10 32 10ZM32 46C23.1634 46 16 38.8366 16 30C16 21.1634 23.1634 14 32 14C40.8366 14 48 21.1634 48 30C48 38.8366 40.8366 46 32 46Z" fill="white"/>
<path d="M32 20L28 24L32 28L36 24L32 20Z" fill="white"/>
<path d="M32 28L28 32L32 36L36 32L32 28Z" fill="white"/>
<path d="M32 36L28 40L32 44L36 40L32 36Z" fill="white"/>
<path d="M32 20L32 44" stroke="white" stroke-width="2" stroke-linecap="round"/>
<path d="M24 32L40 32" stroke="white" stroke-width="2" stroke-linecap="round"/>
<path d="M20 24L44 24" stroke="white" stroke-width="2" stroke-linecap="round"/>
<path d="M20 40L44 40" stroke="white" stroke-width="2" stroke-linecap="round"/>
</svg>